<svg width="21" height="36" viewBox="0 0 21 36" fill="none" xmlns="http://www.w3.org/2000/svg">
<g clip-path="url(#clip0_54_4)">
<path d="M20.67 18L0.835083 35.8113L9.53388 18L0.835083 0.188721L20.67 18Z" fill="#D9D9D9"/>
<mask id="mask0_54_4" style="mask-type:luminance" maskUnits="userSpaceOnUse" x="0" y="0" width="21" height="36">
<path d="M20.67 18L0.835083 35.8113L9.53388 18L0.835083 0.188721L20.67 18Z" fill="white"/>
</mask>
<g mask="url(#mask0_54_4)">
<path d="M20.67 18.0001L28.8545 25.3495L37.039 18.0001L28.8545 10.6507L20.67 18.0001ZM0.835025 35.8114L-9.76501 31.6369L9.0195 43.1608L0.835025 35.8114ZM9.53382 18.0001L20.1339 22.1745L22.1726 18.0001L20.1339 13.8257L9.53382 18.0001ZM0.835025 0.188796L9.0195 -7.16064L-9.76501 4.36323L0.835025 0.188796ZM12.4856 10.6507L-7.34945 28.4619L9.0195 43.1608L28.8545 25.3495L12.4856 10.6507ZM11.4351 39.9858L20.1339 22.1745L-1.06621 13.8257L-9.76501 31.6369L11.4351 39.9858ZM20.1339 13.8257L11.4351 -3.98563L-9.76501 4.36323L-1.06621 22.1745L20.1339 13.8257ZM-7.34945 7.53823L12.4856 25.3495L28.8545 10.6507L9.0195 -7.16064L-7.34945 7.53823Z" fill="white"/>
</g>
</g>
<defs>
<clipPath id="clip0_54_4">
<rect width="21" height="36" fill="white"/>
</clipPath>
</defs>
</svg>
