<svg width="30" height="29" viewBox="0 0 30 29" fill="none" xmlns="http://www.w3.org/2000/svg">
<path d="M10.6445 14.471C10.6445 11.807 12.8039 9.64689 15.4683 9.64689C18.1327 9.64689 20.2933 11.807 20.2933 14.471C20.2933 17.1349 18.1327 19.2951 15.4683 19.2951C12.8039 19.2951 10.6445 17.1349 10.6445 14.471ZM8.03625 14.471C8.03625 18.575 11.3636 21.9017 15.4683 21.9017C19.573 21.9017 22.9004 18.575 22.9004 14.471C22.9004 10.367 19.573 7.04024 15.4683 7.04024C11.3636 7.04024 8.03625 10.367 8.03625 14.471ZM21.4578 6.74561C21.4576 7.08906 21.5593 7.42484 21.7501 7.71049C21.9408 7.99614 22.212 8.21882 22.5293 8.35038C22.8466 8.48195 23.1958 8.51647 23.5328 8.4496C23.8697 8.38273 24.1792 8.21747 24.4222 7.97471C24.6652 7.73195 24.8308 7.42259 24.8979 7.08577C24.9651 6.74894 24.9308 6.39977 24.7995 6.0824C24.6682 5.76504 24.4457 5.49374 24.1601 5.30282C23.8746 5.11189 23.5388 5.00991 23.1953 5.00977H23.1946C22.7341 5.00999 22.2926 5.19292 21.9669 5.51838C21.6413 5.84385 21.4582 6.28524 21.4578 6.74561ZM9.62094 26.2501C8.20982 26.1859 7.44283 25.9508 6.93312 25.7523C6.25738 25.4893 5.77523 25.176 5.2683 24.6699C4.76138 24.1637 4.44759 23.6821 4.18567 23.0065C3.98698 22.4971 3.75192 21.73 3.68778 20.3192C3.61761 18.7938 3.6036 18.3356 3.6036 14.4711C3.6036 10.6066 3.61877 10.1497 3.68778 8.62303C3.75204 7.21216 3.98883 6.44658 4.18567 5.93569C4.44874 5.26006 4.76207 4.778 5.2683 4.27117C5.77453 3.76433 6.25622 3.4506 6.93312 3.18873C7.4426 2.99007 8.20982 2.75506 9.62094 2.69092C11.1466 2.62077 11.6049 2.60676 15.4683 2.60676C19.3317 2.60676 19.7905 2.62193 21.3174 2.69092C22.7285 2.75518 23.4943 2.99192 24.0052 3.18873C24.681 3.4506 25.1631 3.76503 25.6701 4.27117C26.177 4.77731 26.4896 5.26006 26.7527 5.93569C26.9514 6.44507 27.1864 7.21216 27.2506 8.62303C27.3208 10.1497 27.3348 10.6066 27.3348 14.4711C27.3348 18.3356 27.3208 18.7925 27.2506 20.3192C27.1863 21.73 26.9501 22.4969 26.7527 23.0065C26.4896 23.6821 26.1763 24.1642 25.6701 24.6699C25.1638 25.1755 24.681 25.4893 24.0052 25.7523C23.4958 25.951 22.7285 26.186 21.3174 26.2501C19.7918 26.3203 19.3335 26.3343 15.4683 26.3343C11.6031 26.3343 11.1461 26.3203 9.62094 26.2501ZM9.5011 0.0875149C7.96029 0.157671 6.90742 0.401943 5.98793 0.759668C5.03568 1.12909 4.22955 1.62469 3.42401 2.42882C2.61846 3.23295 2.12404 4.04021 1.75456 4.99229C1.39677 5.91219 1.15245 6.9643 1.08228 8.50483C1.01096 10.0478 0.994629 10.5411 0.994629 14.471C0.994629 18.4009 1.01096 18.8942 1.08228 20.4371C1.15245 21.9778 1.39677 23.0298 1.75456 23.9497C2.12404 24.9012 2.61858 25.7093 3.42401 26.5131C4.22944 27.3169 5.03568 27.8118 5.98793 28.1823C6.90915 28.54 7.96029 28.7843 9.5011 28.8544C11.0452 28.9246 11.5377 28.9421 15.4683 28.9421C19.3989 28.9421 19.8923 28.9258 21.4355 28.8544C22.9764 28.7843 24.0286 28.54 24.9487 28.1823C25.9004 27.8118 26.7071 27.3173 27.5126 26.5131C28.3182 25.709 28.8115 24.9012 29.1821 23.9497C29.5399 23.0298 29.7853 21.9777 29.8543 20.4371C29.9245 18.893 29.9408 18.4009 29.9408 14.471C29.9408 10.5411 29.9245 10.0478 29.8543 8.50483C29.7842 6.96418 29.5399 5.91161 29.1821 4.99229C28.8115 4.04079 28.3169 3.23423 27.5126 2.42882C26.7083 1.62342 25.9004 1.12909 24.9499 0.759668C24.0286 0.401943 22.9763 0.156513 21.4367 0.0875149C19.8934 0.017359 19.4001 -0.00012207 15.4695 -0.00012207C11.5389 -0.00012207 11.0452 0.0162013 9.5011 0.0875149Z" fill="white"/>
</svg>
