<svg width="24" height="28" viewBox="0 0 24 28" fill="none" xmlns="http://www.w3.org/2000/svg">
<path d="M17.2289 1.16463C17.388 2.08629 17.7342 2.96326 18.245 3.73853C18.7558 4.5138 19.9916 5.85306 19.9916 5.85306C21.2888 7.04162 21.9907 7.35306 23.6328 7.68629V11.4467C21.3083 11.4509 19.0412 10.7051 17.1517 9.31474L17.1523 9.59438L17.1746 19.054C17.1717 20.6507 16.747 22.2166 15.9458 23.5851C15.1447 24.9535 13.997 26.0731 12.6252 26.8247C11.2533 27.5763 9.70862 27.9317 8.15561 27.8531C6.6026 27.7744 5.10012 27.2646 3.80695 26.378C2.19487 25.2686 0.99603 23.6308 0.406229 21.7322C-0.183571 19.8337 -0.129785 17.786 0.558821 15.9228C1.24743 14.0597 2.53025 12.491 4.19822 11.4723C5.8662 10.4537 7.82097 10.0452 9.74395 10.3135L9.74352 15.1837L9.74352 15.1913C9.39121 15.0786 9.02574 15.0157 8.65722 15.0044C8.05989 14.9927 7.46274 15.121 6.91295 15.386C6.01913 15.8167 5.31595 16.5772 4.94327 17.5161C4.57059 18.455 4.55572 19.5035 4.90161 20.4532C5.24751 21.4028 5.92882 22.184 6.81004 22.6413H6.78706C7.33352 22.9237 7.93709 23.0689 8.54884 23.0657C9.5878 23.0678 10.5851 22.6466 11.3219 21.8944C12.0588 21.1422 12.4749 20.1205 12.4789 19.0536V0H17.1521V0.613618C17.1751 0.794557 17.2289 0.983688 17.2289 1.16463Z" fill="white"/>
</svg>
